# xmcd
#
# Track frame offsets:
#	150
#	15353
#	32374
#	46662
#	63924
#	80371
#	93176
#	110195
#	125129
#	144331
#	165086
#	178612
#
# Disc length: 2596 seconds
#
# Revision: 0
# Processed by: cddbd v1.5.2PL0 Copyright (c) Steve Scherf et al.
# Submitted via: EasyCDDAExtractor 2010.6.0.0
#
DISCID=870a220c
DTITLE=Dale Watson's Hillbilly Swing Band - One More, Once More
DYEAR=1900
DGENRE=Country
TTITLE0=Once More
TTITLE1=You Win Again
TTITLE2=You've Got Me, Now
TTITLE3=Do You
TTITLE4=So Glad You're Mine
TTITLE5=Cupid
TTITLE6=6 Days
TTITLE7=Monterey
TTITLE8=San Antone
TTITLE9=Deep In The Heart
TTITLE10=Wagon
TTITLE11=Danced All Night
EXTD=
EXTT0=
EXTT1=
EXTT2=
EXTT3=
EXTT4=
EXTT5=
EXTT6=
EXTT7=
EXTT8=
EXTT9=
EXTT10=
EXTT11=
PLAYORDER=
